<svg version="1.2" baseProfile="tiny-ps" xmlns="http://www.w3.org/2000/svg" viewBox="0 0 2048 2048" width="2048" height="2048">
	<title>captain-otter-svg</title>
	<style>
		tspan { white-space:pre }
		.shp0 { fill: #ffffff } 
	</style>
	<g >
		<path fill-rule="evenodd" class="shp0" d="M980.73 707.88C1120.6 695.76 1219.41 728.17 1289.58 783.54C1299.38 742.61 1336.24 712.19 1380.21 712.19C1431.67 712.19 1473.39 753.87 1473.39 805.28C1473.39 855.13 1434.18 895.82 1384.89 898.26C1403.82 932.55 1418.23 969.06 1429.32 1005.69C1350.84 996.67 1205.23 974.06 1078.82 921.8C920.07 856.16 788.54 788.51 755.41 771.17C811.51 738.83 884.89 716.18 980.73 707.88ZM1466.77 1224.12C1471.35 1277.9 1493.71 1537.18 1474.06 1843.42C1187.11 1970.52 869.1 1984.86 573.85 1843.42C566.45 1612.68 581.24 1405.46 581.24 1318.68C581.24 1219.06 559.47 1057.1 617.84 924.48C571.2 919.39 534.9 879.88 534.9 831.9C534.9 780.46 576.62 738.76 628.08 738.76C667.7 738.76 701.54 763.47 715.02 798.31C715.93 797.6 716.85 796.89 717.77 796.19L715.04 798.89C715.04 798.89 876.73 888.41 1063.28 965.78C1093.41 978.28 1124.08 989.09 1154.47 998.44C1149.96 1038.93 1145.49 1150.56 1231.77 1159.12C1309.76 1166.85 1323.99 1083.06 1326.1 1038.75C1372.81 1046.74 1413.14 1051.43 1442.17 1054.14C1456.6 1116.71 1462.76 1176.92 1466.77 1224.12ZM734.55 1077.81C734.55 1125.56 753.71 1150.13 781.14 1150.96C816.05 1152.02 834.4 1118.91 834.4 1071.16C834.4 1023.41 816.07 998 781.14 998C746.22 998 734.55 1030.06 734.55 1077.81ZM1011.72 1052.87C940.89 1052.46 906.26 1083.52 907.62 1124.36C909.22 1172.45 946.81 1202.69 1020.78 1204.17C1076.72 1205.28 1122.09 1160.68 1120.63 1117.71C1118.99 1069.62 1079.16 1053.27 1011.72 1052.87ZM863.41 1268.84C769.62 1388.45 993.3 1428.73 1027.61 1337.14C1066.93 1434.62 1288.41 1383.5 1188.42 1273.36C1162.52 1376.4 1089.11 1223.6 1026.37 1300.64C959.31 1219.8 887.43 1370.05 863.41 1268.84Z" />
		<path fill-rule="evenodd" class="shp0" d="M1022.49 2025.4C468.2 2025.4 20.16 1577.77 20.16 1024C20.16 470.23 468.2 22.6 1022.49 22.6C1576.79 22.6 2024.83 470.23 2024.83 1024C2024.83 1577.77 1576.79 2025.4 1022.49 2025.4ZM1889.26 1015.04C1889.26 534.33 1500.34 145.78 1019.18 145.78C538.03 145.78 149.11 534.33 149.11 1015.04C149.11 1495.74 538.03 1884.3 1019.18 1884.3C1500.34 1884.3 1889.26 1495.74 1889.26 1015.04Z" />
		<g >
			<path fill-rule="evenodd" class="shp0" d="M696.92 532.38C694.25 526.15 693.29 502.73 712.45 509.1C911.13 575.19 788.27 405.21 906.64 337.03C927.53 377.85 929.7 382.91 948.98 419.52C952.58 374.08 952.96 361.98 957.13 309.86C1283.48 250.23 1090.26 614.72 1313.14 507.8C1330.83 499.31 1328.59 528.09 1326.08 532.38C1314.69 560.63 1264.98 705.52 1253.59 729.03C1130.89 662.11 928.99 657.9 773.3 727.74C756.58 694.47 711.27 565.06 696.92 532.38ZM928 501C928 502.08 928.11 503.14 928.31 504.16C922.27 506.54 918 512.29 918 519C918 527.84 925.39 535 934.5 535C940.9 535 946.45 531.46 949.19 526.3L1004.29 555.66L947.65 586.22C946.15 579.24 939.94 574 932.5 574C923.94 574 917 580.94 917 589.5C917 597.51 923.08 604.11 930.88 604.92C930.31 606.5 930 608.22 930 610C930 618.28 936.72 625 945 625C953.28 625 960 618.28 960 610C960 606.15 958.55 602.64 956.16 599.98L1021.81 565L1088.34 600.45C1085.66 603.16 1084 606.89 1084 611C1084 619.28 1090.72 626 1099 626C1107.28 626 1114 619.28 1114 611C1114 609.17 1113.67 607.41 1113.07 605.79C1120.41 604.56 1126 598.18 1126 590.5C1126 581.94 1119.06 575 1110.5 575C1103.49 575 1097.57 579.65 1095.65 586.04L1039.34 555.66L1093.51 526.79C1096.06 532.23 1101.59 536 1108 536C1116.84 536 1124 528.84 1124 520C1124 513.17 1119.73 507.35 1113.71 505.05C1113.9 504.06 1114 503.04 1114 502C1114 493.16 1106.84 486 1098 486C1089.16 486 1082 493.16 1082 502C1082 505.74 1083.28 509.17 1085.43 511.9L1021.82 546.21L956.51 510.97C958.7 508.24 960 504.77 960 501C960 492.16 952.84 485 944 485C935.16 485 928 492.16 928 501Z" />
		</g>
	</g>
</svg>