<svg version="1.2" baseProfile="tiny-ps" xmlns="http://www.w3.org/2000/svg" viewBox="0 0 1024 1024" width="1024" height="1024">
	<title>kofi-svg</title>
	<style>
		tspan { white-space:pre }
		.shp0 { fill: #ffffff } 
	</style>
	<path fill-rule="evenodd" class="shp0" d="M1018.92 381.78C1051.9 556.07 920.92 687.1 735.23 676.86C736.3 726.7 725.85 818.01 621.82 836.18C464 837.29 111.27 838.27 111.27 838.27C111.27 838.27 7.94 827.69 0.94 724.27C-1.62 532.35 1.88 219.86 1.88 219.86C1.88 219.86 5.08 185.81 30.85 185.81L811.61 185.81C811.61 185.81 985.94 207.49 1018.92 381.78ZM546.94 531.58C594.26 476.12 597.33 382.63 516.1 347.65C434.9 312.7 368.13 388.74 368.13 388.74C310.19 325.03 222.55 328.28 181.97 371.37C141.44 414.46 155.61 488.49 185.86 529.66C214.27 568.28 339.07 679.55 357.97 698.37C357.97 698.37 359.34 699.78 362.58 702.21C370.65 706.3 375.81 701.23 375.81 701.23C375.81 701.23 493.78 593.58 546.94 531.58ZM810.33 551.98C856.15 537.13 898.18 504.96 898.18 423.34C898.18 334.29 814.08 310.78 814.08 310.78L738.56 310.78L738.56 553.17C738.56 553.17 770.73 556.93 810.33 551.98Z" />
</svg>