<svg version="1.2" baseProfile="tiny-ps" xmlns="http://www.w3.org/2000/svg" viewBox="0 0 1024 1024" width="1024" height="1024">
	<title>New Project</title>
	<style>
		tspan { white-space:pre }
		.shp0 { fill: #ffffff } 
	</style>
	<path fill-rule="evenodd" class="shp0" d="M536.52 1010.75C521.51 1019.42 503.01 1019.42 488 1010.75L268.35 883.94C253.34 875.27 244.09 859.25 244.09 841.91L244.09 388.85C244.09 371.52 253.34 355.5 268.35 346.83L488 220.01C503.01 211.35 521.51 211.35 536.52 220.01L756.17 346.83C771.18 355.5 780.43 371.52 780.43 388.85L780.43 841.91C780.43 859.25 771.18 875.27 756.17 883.94L536.52 1010.75ZM381.27 488.48C381.27 492.33 384.4 495.46 388.25 495.46L488.46 495.46C492.31 495.46 495.44 492.33 495.44 488.48L495.44 388.27C495.44 384.42 492.31 381.29 488.46 381.29L388.25 381.29C384.4 381.29 381.27 384.42 381.27 388.27L381.27 488.48ZM528.69 488.48C528.69 492.33 531.82 495.46 535.68 495.46L635.88 495.46C639.74 495.46 642.86 492.33 642.86 488.48L642.86 388.27C642.86 384.42 639.74 381.29 635.88 381.29L535.68 381.29C531.82 381.29 528.69 384.42 528.69 388.27L528.69 488.48ZM381.27 635.9C381.27 639.76 384.4 642.88 388.25 642.88L488.46 642.88C492.31 642.88 495.44 639.76 495.44 635.9L495.44 535.7C495.44 531.84 492.31 528.71 488.46 528.71L388.25 528.71C384.4 528.71 381.27 531.84 381.27 535.7L381.27 635.9ZM528.69 635.9C528.69 639.76 531.82 642.88 535.68 642.88L635.88 642.88C639.74 642.88 642.86 639.76 642.86 635.9L642.86 535.7C642.86 531.84 639.74 528.71 635.88 528.71L535.68 528.71C531.82 528.71 528.69 531.84 528.69 535.7L528.69 635.9Z" />
	<path fill-rule="evenodd" class="shp0" d="M93.51 785.66C76.08 775.6 65.35 757.01 65.35 736.89L65.35 286.71C65.35 266.59 76.08 248 93.51 237.94L483.37 12.85C500.8 2.79 522.27 2.79 539.69 12.85L929.56 237.94C946.98 248 957.72 266.59 957.72 286.71L957.72 736.89C957.72 757.01 946.98 775.6 929.56 785.66L851.4 830.79L851.4 345.34C851.4 326.95 841.59 309.96 825.67 300.76L537.9 134.62C521.97 125.43 502.35 125.43 486.43 134.62L198.66 300.76C182.74 309.96 172.93 326.95 172.93 345.34L172.93 831.52L93.51 785.66Z" />
</svg>